<?xml version="1.0" standalone="no"?><!DOCTYPE svg PUBLIC "-//W3C//DTD SVG 1.1//EN" "http://www.w3.org/Graphics/SVG/1.1/DTD/svg11.dtd"><svg t="1526372227495" class="icon" style="" viewBox="0 0 1024 1024" version="1.1" xmlns="http://www.w3.org/2000/svg" p-id="1061" xmlns:xlink="http://www.w3.org/1999/xlink" width="200" height="200"><defs><style type="text/css"></style></defs><path d="M963.9 569.6c-88.4-112.1-329.7-139.4-329.7-139.4l97.2-59.9-217-121.6L309.2 365 480 461c277.5-3 359.9 147.1 359.9 147.1 68.8 223.6-337.4 237.8-337.4 237.8C271.2 871.4 162.1 665 162.1 665L21 669.8c164.8 334.4 765.5 188 765.5 188 310.8-97.3 177.4-288.2 177.4-288.2zM513.8 421.3l-97.2-49.2 93.1-60.5 97.2 52.8-93.1 56.9z" fill="#1D1F86" p-id="1062"></path><path d="M526.8 136.7C375 126 63.1 145 25.2 333.6-5.6 483.6 223.9 571.4 384 588c-32.6 19.6-65.8 38.5-98.4 58.1 71.2 40.3 142.9 81.2 214.1 121.6l195.7-113.8-195.9-104.5c-35-8.3-71.8 4.7-94.9 4.7-110.9 1.2-265.1-119.8-223.6-225.9 80.1-231.3 618.5-198.1 671.3 34.4H1003c-73.5-178.5-324.4-215.2-476.2-225.9z m-18.4 463.1l99 54-102 54-94.3-54 97.3-54z" fill="#5AA371" p-id="1063"></path></svg>